<!--?xml version="1.0" standalone="no"?-->
              <svg id="sw-js-blob-svg" viewBox="0 0 100 100" xmlns="http://www.w3.org/2000/svg" version="1.1">
                    <defs> 
                        <linearGradient id="sw-gradient" x1="7" x2="1" y1="1" y2="0">
                            <stop id="stop1" stop-color="rgba(255, 160, 10, 1)" offset="100%"></stop>
                        </linearGradient>
                    </defs>
                <path fill="url(#sw-gradient)" d="M20,-31.7C26.5,-30.9,32.6,-26.6,35.1,-20.8C37.5,-14.9,36.3,-7.5,36.9,0.3C37.4,8.1,39.8,16.2,37.1,21.7C34.4,27.2,26.7,30,19.7,32.9C12.7,35.9,6.3,38.8,0,38.9C-6.3,38.9,-12.7,35.9,-17.9,32C-23.2,28,-27.4,23.1,-29.5,17.6C-31.6,12.1,-31.6,6.1,-32.9,-0.8C-34.3,-7.6,-37,-15.3,-34.8,-20.6C-32.6,-25.9,-25.5,-28.9,-18.9,-29.5C-12.3,-30.2,-6.1,-28.5,0.3,-29.1C6.8,-29.6,13.5,-32.4,20,-31.7Z" width="100%" height="100%" transform="translate(50 50)" stroke-width="0" style="transition: all 0.3s ease 0s;"></path>
              </svg>